<?xml version="1.0" encoding="UTF-8" standalone="no"?>
<!DOCTYPE svg PUBLIC "-//W3C//DTD SVG 1.1//EN"
 "http://www.w3.org/Graphics/SVG/1.1/DTD/svg11.dtd">
<!-- Generated by graphviz version 2.26.3 (20100126.1600)
 -->
<!-- Title: Perl Pages: 1 -->
<svg width="644pt" height="662pt"
 viewBox="0.00 0.00 644.00 662.00" xmlns="http://www.w3.org/2000/svg" xmlns:xlink="http://www.w3.org/1999/xlink">
<g id="graph1" class="graph" transform="scale(1 1) rotate(0) translate(4 658)">
<title>Perl</title>
<polygon fill="white" stroke="white" points="-4,5 -4,-658 641,-658 641,5 -4,5"/>
<!-- derivations -->
<g id="node1" class="node"><title>derivations</title>
<polygon fill="none" stroke="blue" points="480.5,-588.5 480.5,-653.5 635.5,-653.5 635.5,-588.5 480.5,-588.5"/>
<text text-anchor="middle" x="519" y="-617.9" font-family="Times Roman,serif" font-size="14.00">derivations</text>
<polyline fill="none" stroke="blue" points="557.5,-588.5 557.5,-653.5 "/>
<text text-anchor="start" x="565.5" y="-636.9" font-family="Times Roman,serif" font-size="14.00">1: fc_name</text>
<text text-anchor="start" x="565.5" y="-617.9" font-family="Times Roman,serif" font-size="14.00">2: id</text>
<text text-anchor="start" x="565.5" y="-598.9" font-family="Times Roman,serif" font-size="14.00">3: name</text>
</g>
<!-- forms -->
<g id="node2" class="node"><title>forms</title>
<polygon fill="none" stroke="blue" points="494.5,-504.5 494.5,-569.5 621.5,-569.5 621.5,-504.5 494.5,-504.5"/>
<text text-anchor="middle" x="519" y="-533.9" font-family="Times Roman,serif" font-size="14.00">forms</text>
<polyline fill="none" stroke="blue" points="543.5,-504.5 543.5,-569.5 "/>
<text text-anchor="start" x="551.5" y="-552.9" font-family="Times Roman,serif" font-size="14.00">1: fc_name</text>
<text text-anchor="start" x="551.5" y="-533.9" font-family="Times Roman,serif" font-size="14.00">2: id</text>
<text text-anchor="start" x="551.5" y="-514.9" font-family="Times Roman,serif" font-size="14.00">3: name</text>
</g>
<!-- kinds -->
<g id="node3" class="node"><title>kinds</title>
<polygon fill="none" stroke="blue" points="496,-420.5 496,-485.5 620,-485.5 620,-420.5 496,-420.5"/>
<text text-anchor="middle" x="519" y="-449.9" font-family="Times Roman,serif" font-size="14.00">kinds</text>
<polyline fill="none" stroke="blue" points="542,-420.5 542,-485.5 "/>
<text text-anchor="start" x="550" y="-468.9" font-family="Times Roman,serif" font-size="14.00">1: fc_name</text>
<text text-anchor="start" x="550" y="-449.9" font-family="Times Roman,serif" font-size="14.00">2: id</text>
<text text-anchor="start" x="550" y="-430.9" font-family="Times Roman,serif" font-size="14.00">3: name</text>
</g>
<!-- meanings -->
<g id="node4" class="node"><title>meanings</title>
<polygon fill="none" stroke="blue" points="484.5,-336.5 484.5,-401.5 631.5,-401.5 631.5,-336.5 484.5,-336.5"/>
<text text-anchor="middle" x="519" y="-365.9" font-family="Times Roman,serif" font-size="14.00">meanings</text>
<polyline fill="none" stroke="blue" points="553.5,-336.5 553.5,-401.5 "/>
<text text-anchor="start" x="561.5" y="-384.9" font-family="Times Roman,serif" font-size="14.00">1: fc_name</text>
<text text-anchor="start" x="561.5" y="-365.9" font-family="Times Roman,serif" font-size="14.00">2: id</text>
<text text-anchor="start" x="561.5" y="-346.9" font-family="Times Roman,serif" font-size="14.00">3: name</text>
</g>
<!-- names -->
<g id="node5" class="node"><title>names</title>
<polygon fill="none" stroke="blue" points="288.5,-208 288.5,-444 443.5,-444 443.5,-208 288.5,-208"/>
<text text-anchor="middle" x="314.5" y="-322.9" font-family="Times Roman,serif" font-size="14.00">names</text>
<polyline fill="none" stroke="blue" points="340.5,-208 340.5,-444 "/>
<text text-anchor="start" x="348.5" y="-427.4" font-family="Times Roman,serif" font-size="14.00">1: derivation_id</text>
<text text-anchor="start" x="348.5" y="-408.4" font-family="Times Roman,serif" font-size="14.00">2: fc_name</text>
<text text-anchor="start" x="348.5" y="-389.4" font-family="Times Roman,serif" font-size="14.00">3: form_id</text>
<text text-anchor="start" x="348.5" y="-370.4" font-family="Times Roman,serif" font-size="14.00">4: id</text>
<text text-anchor="start" x="348.5" y="-351.4" font-family="Times Roman,serif" font-size="14.00">5: kind_id</text>
<text text-anchor="start" x="348.5" y="-332.4" font-family="Times Roman,serif" font-size="14.00">6: meaning_id</text>
<text text-anchor="start" x="348.5" y="-313.4" font-family="Times Roman,serif" font-size="14.00">7: name</text>
<text text-anchor="start" x="348.5" y="-294.4" font-family="Times Roman,serif" font-size="14.00">8: original_id</text>
<text text-anchor="start" x="348.5" y="-275.4" font-family="Times Roman,serif" font-size="14.00">9: rating_id</text>
<text text-anchor="start" x="348.5" y="-256.4" font-family="Times Roman,serif" font-size="14.00">10: sex_id</text>
<text text-anchor="start" x="348.5" y="-237.4" font-family="Times Roman,serif" font-size="14.00">11: source_id</text>
<text text-anchor="start" x="348.5" y="-218.4" font-family="Times Roman,serif" font-size="14.00">12: timestamp</text>
</g>
<!-- names&#45;&gt;derivations -->
<g id="edge16" class="edge"><title>names:port2&#45;&gt;derivations:port2</title>
<path fill="none" stroke="grey" d="M392,-444C392,-515.622 418.384,-542.488 480,-579 489.245,-584.479 562.733,-578.183 588.282,-583.1"/>
<polygon fill="grey" stroke="grey" points="586.568,-586.152 597,-588 589.997,-580.049 586.568,-586.152"/>
</g>
<!-- names&#45;&gt;forms -->
<g id="edge4" class="edge"><title>names:port2&#45;&gt;forms:port2</title>
<path fill="none" stroke="grey" d="M392,-444C392,-489.205 436.898,-481.374 480,-495 488.857,-497.8 550.734,-494.445 574.097,-499.132"/>
<polygon fill="grey" stroke="grey" points="572.547,-502.273 583,-504 575.905,-496.131 572.547,-502.273"/>
</g>
<!-- names&#45;&gt;kinds -->
<g id="edge10" class="edge"><title>names:port2&#45;&gt;kinds:port2</title>
<path fill="none" stroke="grey" d="M392,-444C392,-466.889 421.135,-448.87 443.5,-444 468.568,-438.542 470.932,-425.458 496,-420 503.21,-418.43 551.034,-413.549 571.612,-415.992"/>
<polygon fill="grey" stroke="grey" points="570.429,-419.292 581,-420 573.178,-412.854 570.429,-419.292"/>
</g>
<!-- names&#45;&gt;meanings -->
<g id="edge2" class="edge"><title>names:port2&#45;&gt;meanings:port2</title>
<path fill="none" stroke="grey" d="M444,-325C445.743,-325 549.654,-331.295 582.893,-334.541"/>
<polygon fill="grey" stroke="grey" points="582.602,-338.035 593,-336 583.603,-331.107 582.602,-338.035"/>
</g>
<!-- originals -->
<g id="node6" class="node"><title>originals</title>
<polygon fill="none" stroke="blue" points="487,-252.5 487,-317.5 629,-317.5 629,-252.5 487,-252.5"/>
<text text-anchor="middle" x="519" y="-281.9" font-family="Times Roman,serif" font-size="14.00">originals</text>
<polyline fill="none" stroke="blue" points="551,-252.5 551,-317.5 "/>
<text text-anchor="start" x="559" y="-300.9" font-family="Times Roman,serif" font-size="14.00">1: fc_name</text>
<text text-anchor="start" x="559" y="-281.9" font-family="Times Roman,serif" font-size="14.00">2: id</text>
<text text-anchor="start" x="559" y="-262.9" font-family="Times Roman,serif" font-size="14.00">3: name</text>
</g>
<!-- names&#45;&gt;originals -->
<g id="edge6" class="edge"><title>names:port2&#45;&gt;originals:port2</title>
<path fill="none" stroke="grey" d="M444,-325C450.82,-325 549.164,-325.79 580.49,-321.233"/>
<polygon fill="grey" stroke="grey" points="581.659,-324.532 590,-318 579.406,-317.905 581.659,-324.532"/>
</g>
<!-- ratings -->
<g id="node7" class="node"><title>ratings</title>
<polygon fill="none" stroke="blue" points="492.5,-168.5 492.5,-233.5 623.5,-233.5 623.5,-168.5 492.5,-168.5"/>
<text text-anchor="middle" x="519" y="-197.9" font-family="Times Roman,serif" font-size="14.00">ratings</text>
<polyline fill="none" stroke="blue" points="545.5,-168.5 545.5,-233.5 "/>
<text text-anchor="start" x="553.5" y="-216.9" font-family="Times Roman,serif" font-size="14.00">1: fc_name</text>
<text text-anchor="start" x="553.5" y="-197.9" font-family="Times Roman,serif" font-size="14.00">2: id</text>
<text text-anchor="start" x="553.5" y="-178.9" font-family="Times Roman,serif" font-size="14.00">3: name</text>
</g>
<!-- names&#45;&gt;ratings -->
<g id="edge14" class="edge"><title>names:port2&#45;&gt;ratings:port2</title>
<path fill="none" stroke="grey" d="M392,-206C392,-183.094 421.383,-202.038 443.5,-208 467.304,-214.417 468.576,-228.046 492.5,-234 500.409,-235.968 553.939,-241.278 575.764,-238.267"/>
<polygon fill="grey" stroke="grey" points="577.39,-241.372 585,-234 574.454,-235.017 577.39,-241.372"/>
</g>
<!-- sexes -->
<g id="node8" class="node"><title>sexes</title>
<polygon fill="none" stroke="blue" points="496,-84.5 496,-149.5 620,-149.5 620,-84.5 496,-84.5"/>
<text text-anchor="middle" x="519" y="-113.9" font-family="Times Roman,serif" font-size="14.00">sexes</text>
<polyline fill="none" stroke="blue" points="542,-84.5 542,-149.5 "/>
<text text-anchor="start" x="550" y="-132.9" font-family="Times Roman,serif" font-size="14.00">1: fc_name</text>
<text text-anchor="start" x="550" y="-113.9" font-family="Times Roman,serif" font-size="14.00">2: id</text>
<text text-anchor="start" x="550" y="-94.9" font-family="Times Roman,serif" font-size="14.00">3: name</text>
</g>
<!-- names&#45;&gt;sexes -->
<g id="edge8" class="edge"><title>names:port2&#45;&gt;sexes:port2</title>
<path fill="none" stroke="grey" d="M392,-206C392,-161.66 437.508,-171.667 480,-159 488.688,-156.41 548.794,-159.456 571.941,-154.874"/>
<polygon fill="grey" stroke="grey" points="573.852,-157.82 581,-150 570.535,-151.656 573.852,-157.82"/>
</g>
<!-- sources -->
<g id="node9" class="node"><title>sources</title>
<polygon fill="none" stroke="blue" points="490.5,-0.5 490.5,-65.5 625.5,-65.5 625.5,-0.5 490.5,-0.5"/>
<text text-anchor="middle" x="519" y="-29.9" font-family="Times Roman,serif" font-size="14.00">sources</text>
<polyline fill="none" stroke="blue" points="547.5,-0.5 547.5,-65.5 "/>
<text text-anchor="start" x="555.5" y="-48.9" font-family="Times Roman,serif" font-size="14.00">1: fc_name</text>
<text text-anchor="start" x="555.5" y="-29.9" font-family="Times Roman,serif" font-size="14.00">2: id</text>
<text text-anchor="start" x="555.5" y="-10.9" font-family="Times Roman,serif" font-size="14.00">3: name</text>
</g>
<!-- names&#45;&gt;sources -->
<g id="edge12" class="edge"><title>names:port2&#45;&gt;sources:port2</title>
<path fill="none" stroke="grey" d="M392,-206C392,-135.861 419.54,-110.554 480,-75 488.356,-70.0861 553.77,-75.0921 578.007,-70.7427"/>
<polygon fill="grey" stroke="grey" points="579.787,-73.7607 587,-66 576.522,-67.5689 579.787,-73.7607"/>
</g>
<!-- Lingua::EN::GivenNames -->
<g id="node18" class="node"><title>Lingua::EN::GivenNames</title>
<polygon fill="none" stroke="blue" points="247.208,-317.44 247.208,-334.56 176.206,-346.665 75.7938,-346.665 4.7915,-334.56 4.7915,-317.44 75.7938,-305.335 176.206,-305.335 247.208,-317.44"/>
<polygon fill="none" stroke="blue" points="251.193,-314.062 251.193,-337.938 176.542,-350.665 75.4579,-350.665 0.807439,-337.938 0.807439,-314.062 75.4579,-301.335 176.542,-301.335 251.193,-314.062"/>
<text text-anchor="middle" x="126" y="-322.9" font-family="Times Roman,serif" font-size="14.00">Lingua::EN::GivenNames</text>
</g>
<!-- Lingua::EN::GivenNames&#45;&gt;derivations -->
<g id="edge18" class="edge"><title>Lingua::EN::GivenNames&#45;&gt;derivations</title>
<path fill="none" stroke="grey" d="M138.919,-350.173C162.798,-392.626 217.87,-480.738 288,-530 342.604,-568.356 414.634,-591.558 470.563,-604.925"/>
<polygon fill="grey" stroke="grey" points="469.922,-608.369 480.455,-607.228 471.509,-601.552 469.922,-608.369"/>
</g>
<!-- Lingua::EN::GivenNames&#45;&gt;forms -->
<g id="edge20" class="edge"><title>Lingua::EN::GivenNames&#45;&gt;forms</title>
<path fill="none" stroke="grey" d="M140.984,-350.106C166.171,-388.329 220.886,-462.081 288,-497 348.944,-528.709 427.453,-537.332 484.088,-538.847"/>
<polygon fill="grey" stroke="grey" points="484.331,-542.353 494.399,-539.051 484.47,-535.354 484.331,-542.353"/>
</g>
<!-- Lingua::EN::GivenNames&#45;&gt;kinds -->
<g id="edge22" class="edge"><title>Lingua::EN::GivenNames&#45;&gt;kinds</title>
<path fill="none" stroke="grey" d="M142.717,-350.268C168.869,-385.828 223.227,-450.617 288,-476 351.737,-500.977 430.251,-490.128 486.15,-476.112"/>
<polygon fill="grey" stroke="grey" points="487.169,-479.463 495.966,-473.56 485.408,-472.689 487.169,-479.463"/>
</g>
<!-- Lingua::EN::GivenNames&#45;&gt;meanings -->
<g id="edge24" class="edge"><title>Lingua::EN::GivenNames&#45;&gt;meanings</title>
<path fill="none" stroke="grey" d="M146.88,-350.232C175.196,-381.033 229.053,-432.648 288,-453 353.537,-475.627 381.01,-481.971 444,-453 466.336,-442.727 460.853,-426.422 480,-411 481.527,-409.77 483.096,-408.558 484.698,-407.366"/>
<polygon fill="grey" stroke="grey" points="486.775,-410.184 492.95,-401.574 482.754,-404.454 486.775,-410.184"/>
</g>
<!-- Lingua::EN::GivenNames&#45;&gt;names -->
<g id="edge26" class="edge"><title>Lingua::EN::GivenNames&#45;&gt;names</title>
<path fill="none" stroke="grey" d="M251.623,-326C260.59,-326 269.515,-326 278.197,-326"/>
<polygon fill="grey" stroke="grey" points="278.265,-329.5 288.265,-326 278.265,-322.5 278.265,-329.5"/>
</g>
<!-- Lingua::EN::GivenNames&#45;&gt;originals -->
<g id="edge28" class="edge"><title>Lingua::EN::GivenNames&#45;&gt;originals</title>
<path fill="none" stroke="grey" d="M146.88,-301.768C175.196,-270.967 229.053,-219.352 288,-199 353.537,-176.373 381.346,-169.309 444,-199 466.833,-209.82 460.505,-226.926 480,-243 481.346,-244.11 482.726,-245.204 484.134,-246.281"/>
<polygon fill="grey" stroke="grey" points="482.304,-249.276 492.469,-252.264 486.386,-243.589 482.304,-249.276"/>
</g>
<!-- Lingua::EN::GivenNames&#45;&gt;ratings -->
<g id="edge30" class="edge"><title>Lingua::EN::GivenNames&#45;&gt;ratings</title>
<path fill="none" stroke="grey" d="M142.462,-301.87C168.479,-266.143 222.891,-200.639 288,-175 350.416,-150.422 426.969,-161.246 482.6,-175.684"/>
<polygon fill="grey" stroke="grey" points="481.821,-179.099 492.387,-178.317 483.64,-172.339 481.821,-179.099"/>
</g>
<!-- Lingua::EN::GivenNames&#45;&gt;sexes -->
<g id="edge32" class="edge"><title>Lingua::EN::GivenNames&#45;&gt;sexes</title>
<path fill="none" stroke="grey" d="M141.21,-301.698C166.519,-263.571 221.16,-190.499 288,-156 349.511,-124.252 428.791,-116.043 485.502,-114.844"/>
<polygon fill="grey" stroke="grey" points="485.87,-118.339 495.819,-114.697 485.77,-111.34 485.87,-118.339"/>
</g>
<!-- Lingua::EN::GivenNames&#45;&gt;sources -->
<g id="edge34" class="edge"><title>Lingua::EN::GivenNames&#45;&gt;sources</title>
<path fill="none" stroke="grey" d="M137.68,-301.739C160.332,-257.277 214.54,-162.66 288,-112 345.557,-72.3065 423.172,-52.3025 480.415,-42.3797"/>
<polygon fill="grey" stroke="grey" points="481.208,-45.7959 490.496,-40.6993 480.057,-38.8911 481.208,-45.7959"/>
</g>
</g>
</svg>
